<svg width="24" height="25" viewBox="0 0 24 25" fill="none" xmlns="http://www.w3.org/2000/svg">
<path d="M11.97 2.55469C6.45 2.55469 1.97 7.03469 1.97 12.5547C1.97 18.0747 6.45 22.5547 11.97 22.5547C17.49 22.5547 21.97 18.0747 21.97 12.5547C21.97 7.03469 17.5 2.55469 11.97 2.55469ZM14.97 14.7847L12.07 16.4547C11.71 16.6647 11.31 16.7647 10.92 16.7647C10.52 16.7647 10.13 16.6647 9.77 16.4547C9.05 16.0347 8.62 15.2947 8.62 14.4547V11.1047C8.62 10.2747 9.05 9.52469 9.77 9.10469C10.49 8.68469 11.35 8.68469 12.08 9.10469L14.98 10.7747C15.7 11.1947 16.13 11.9347 16.13 12.7747C16.13 13.6147 15.7 14.3647 14.97 14.7847Z" fill="#7DC9CA"/>
</svg>
